<svg width="400" height="300" viewBox="0 0 400 300" fill="none" xmlns="http://www.w3.org/2000/svg">
  <defs>
    <linearGradient id="analyzeGradient" x1="0%" y1="0%" x2="100%" y2="100%">
      <stop offset="0%" style="stop-color:#F59E0B;stop-opacity:1" />
      <stop offset="100%" style="stop-color:#EF4444;stop-opacity:1" />
    </linearGradient>
  </defs>
  
  <!-- Chart background -->
  <rect x="50" y="80" width="300" height="160" rx="8" fill="url(#analyzeGradient)" opacity="0.1"/>
  
  <!-- Chart grid lines -->
  <line x1="50" y1="120" x2="350" y2="120" stroke="url(#analyzeGradient)" stroke-width="1" opacity="0.3"/>
  <line x1="50" y1="160" x2="350" y2="160" stroke="url(#analyzeGradient)" stroke-width="1" opacity="0.3"/>
  <line x1="50" y1="200" x2="350" y2="200" stroke="url(#analyzeGradient)" stroke-width="1" opacity="0.3"/>
  
  <!-- Chart data line -->
  <path d="M70 200 L120 180 L170 160 L220 140 L270 120 L320 100" stroke="url(#analyzeGradient)" stroke-width="3" fill="none" stroke-linecap="round" stroke-linejoin="round"/>
  
  <!-- Data points -->
  <circle cx="70" cy="200" r="4" fill="url(#analyzeGradient)"/>
  <circle cx="120" cy="180" r="4" fill="url(#analyzeGradient)"/>
  <circle cx="170" cy="160" r="4" fill="url(#analyzeGradient)"/>
  <circle cx="220" cy="140" r="4" fill="url(#analyzeGradient)"/>
  <circle cx="270" cy="120" r="4" fill="url(#analyzeGradient)"/>
  <circle cx="320" cy="100" r="4" fill="url(#analyzeGradient)"/>
  
  <!-- Analytics dashboard -->
  <g transform="translate(60, 50)">
    <rect x="0" y="0" width="80" height="60" rx="8" fill="url(#analyzeGradient)" opacity="0.9"/>
    <rect x="10" y="15" width="20" height="15" rx="2" fill="white" opacity="0.8"/>
    <rect x="35" y="15" width="20" height="15" rx="2" fill="white" opacity="0.8"/>
    <rect x="60" y="15" width="10" height="15" rx="2" fill="white" opacity="0.8"/>
    <rect x="10" y="35" width="30" height="10" rx="2" fill="white" opacity="0.8"/>
    <rect x="45" y="35" width="25" height="10" rx="2" fill="white" opacity="0.8"/>
  </g>
  
  <g transform="translate(160, 50)">
    <rect x="0" y="0" width="80" height="60" rx="8" fill="url(#analyzeGradient)" opacity="0.9"/>
    <circle cx="40" cy="30" r="15" fill="white" opacity="0.8"/>
    <path d="M40 20 L45 30 L40 40 L35 30 Z" fill="url(#analyzeGradient)"/>
  </g>
  
  <g transform="translate(260, 50)">
    <rect x="0" y="0" width="80" height="60" rx="8" fill="url(#analyzeGradient)" opacity="0.9"/>
    <rect x="15" y="20" width="8" height="20" rx="1" fill="white" opacity="0.8"/>
    <rect x="27" y="15" width="8" height="25" rx="1" fill="white" opacity="0.8"/>
    <rect x="39" y="25" width="8" height="15" rx="1" fill="white" opacity="0.8"/>
    <rect x="51" y="10" width="8" height="30" rx="1" fill="white" opacity="0.8"/>
  </g>
  
  <!-- Insight indicators -->
  <g transform="translate(320, 80)">
    <circle cx="0" cy="0" r="6" fill="url(#analyzeGradient)">
      <animate attributeName="r" values="6;8;6" dur="2s" repeatCount="indefinite"/>
    </circle>
  </g>
  
  <g transform="translate(80, 100)">
    <circle cx="0" cy="0" r="4" fill="url(#analyzeGradient)" opacity="0.7">
      <animate attributeName="opacity" values="0.7;1;0.7" dur="1.5s" repeatCount="indefinite"/>
    </circle>
  </g>
  
  <!-- Trend arrows -->
  <g transform="translate(340, 120)">
    <path d="M0 0 L-8 -8 L-8 8 Z" fill="url(#analyzeGradient)">
      <animate attributeName="opacity" values="0.5;1;0.5" dur="3s" repeatCount="indefinite"/>
    </path>
  </g>
  
  <!-- Data flow indicators -->
  <g transform="translate(200, 40)">
    <circle cx="0" cy="0" r="3" fill="url(#analyzeGradient)" opacity="0.6">
      <animate attributeName="cy" values="0;-5;0" dur="2s" repeatCount="indefinite"/>
    </circle>
  </g>
  
  <g transform="translate(240, 35)">
    <circle cx="0" cy="0" r="2" fill="url(#analyzeGradient)" opacity="0.5">
      <animate attributeName="cy" values="0;-3;0" dur="1.8s" repeatCount="indefinite"/>
    </circle>
  </g>
</svg>

